<mxfile host="app.diagrams.net" modified="2021-03-19T18:17:23.859Z" agent="5.0 (Macintosh; Intel Mac OS X 10_15_7) AppleWebKit/605.1.15 (KHTML, like Gecko) Version/14.0.3 Safari/605.1.15" etag="H5XCvOLcowwmr3Ud9w-5" version="14.4.9" type="github">
  <diagram id="rsgUYqqYD4AogLCx72Eq" name="Page-1">
    <mxGraphModel dx="-381" dy="456" grid="1" gridSize="10" guides="1" tooltips="1" connect="1" arrows="1" fold="1" page="1" pageScale="1" pageWidth="827" pageHeight="1169" math="0" shadow="0">
      <root>
        <mxCell id="0" />
        <mxCell id="1" parent="0" />
        <mxCell id="Z6YJoc_P9l3Sfv1ZH5nd-1" value="" style="rounded=0;whiteSpace=wrap;html=1;dashed=1;strokeWidth=5;fillColor=none;strokeColor=#FF8000;" parent="1" vertex="1">
          <mxGeometry x="3670" y="2030" width="1650" height="510" as="geometry" />
        </mxCell>
        <mxCell id="Z6YJoc_P9l3Sfv1ZH5nd-2" value="" style="rounded=0;whiteSpace=wrap;html=1;dashed=1;strokeWidth=5;fillColor=none;strokeColor=#00FF00;" parent="1" vertex="1">
          <mxGeometry x="3670" y="2690" width="3020" height="720" as="geometry" />
        </mxCell>
        <mxCell id="Z6YJoc_P9l3Sfv1ZH5nd-217" style="edgeStyle=orthogonalEdgeStyle;rounded=1;orthogonalLoop=1;jettySize=auto;html=1;entryX=0;entryY=0.5;entryDx=0;entryDy=0;startArrow=diamond;startFill=1;startSize=16;endArrow=none;endFill=0;endSize=16;targetPerimeterSpacing=16;" parent="1" source="Z6YJoc_P9l3Sfv1ZH5nd-219" target="Z6YJoc_P9l3Sfv1ZH5nd-246" edge="1">
          <mxGeometry relative="1" as="geometry" />
        </mxCell>
        <mxCell id="Z6YJoc_P9l3Sfv1ZH5nd-218" value="" style="edgeStyle=orthogonalEdgeStyle;rounded=1;orthogonalLoop=1;jettySize=auto;html=1;startArrow=none;startFill=0;startSize=16;endArrow=block;endFill=0;endSize=16;targetPerimeterSpacing=16;entryX=0.5;entryY=1;entryDx=0;entryDy=0;entryPerimeter=0;" parent="1" source="Z6YJoc_P9l3Sfv1ZH5nd-219" target="Z6YJoc_P9l3Sfv1ZH5nd-299" edge="1">
          <mxGeometry relative="1" as="geometry" />
        </mxCell>
        <mxCell id="Z6YJoc_P9l3Sfv1ZH5nd-219" value="Question" style="swimlane;fontStyle=1;align=center;verticalAlign=top;childLayout=stackLayout;horizontal=1;startSize=26;horizontalStack=0;resizeParent=1;resizeParentMax=0;resizeLast=0;collapsible=1;marginBottom=0;" parent="1" vertex="1">
          <mxGeometry x="3710" y="3062" width="210" height="110" as="geometry" />
        </mxCell>
        <mxCell id="Z6YJoc_P9l3Sfv1ZH5nd-220" value="- replies: ArrayList&lt;String&gt;" style="text;strokeColor=none;fillColor=none;align=left;verticalAlign=top;spacingLeft=4;spacingRight=4;overflow=hidden;rotatable=0;points=[[0,0.5],[1,0.5]];portConstraint=eastwest;" parent="Z6YJoc_P9l3Sfv1ZH5nd-219" vertex="1">
          <mxGeometry y="26" width="210" height="24" as="geometry" />
        </mxCell>
        <mxCell id="Z6YJoc_P9l3Sfv1ZH5nd-221" value="" style="line;strokeWidth=1;fillColor=none;align=left;verticalAlign=middle;spacingTop=-1;spacingLeft=3;spacingRight=3;rotatable=0;labelPosition=right;points=[];portConstraint=eastwest;" parent="Z6YJoc_P9l3Sfv1ZH5nd-219" vertex="1">
          <mxGeometry y="50" width="210" height="8" as="geometry" />
        </mxCell>
        <mxCell id="Z6YJoc_P9l3Sfv1ZH5nd-222" value="+ addReply(replyID: String)&#xa;+ deleteReply(replyID: String)&#xa;// Getters and Setters" style="text;strokeColor=none;fillColor=none;align=left;verticalAlign=top;spacingLeft=4;spacingRight=4;overflow=hidden;rotatable=0;points=[[0,0.5],[1,0.5]];portConstraint=eastwest;" parent="Z6YJoc_P9l3Sfv1ZH5nd-219" vertex="1">
          <mxGeometry y="58" width="210" height="52" as="geometry" />
        </mxCell>
        <mxCell id="Z6YJoc_P9l3Sfv1ZH5nd-223" value="" style="group" parent="1" vertex="1" connectable="0">
          <mxGeometry x="4322" y="2982" width="270" height="136" as="geometry" />
        </mxCell>
        <mxCell id="Z6YJoc_P9l3Sfv1ZH5nd-224" value="Owner" style="swimlane;fontStyle=1;align=center;verticalAlign=top;childLayout=stackLayout;horizontal=1;startSize=26;horizontalStack=0;resizeParent=1;resizeParentMax=0;resizeLast=0;collapsible=1;marginBottom=0;" parent="Z6YJoc_P9l3Sfv1ZH5nd-223" vertex="1">
          <mxGeometry width="270" height="130.0038596491228" as="geometry" />
        </mxCell>
        <mxCell id="Z6YJoc_P9l3Sfv1ZH5nd-225" value="- ownedExperiments: ArrayList&lt;String&gt;" style="text;strokeColor=none;fillColor=none;align=left;verticalAlign=top;spacingLeft=4;spacingRight=4;overflow=hidden;rotatable=0;points=[[0,0.5],[1,0.5]];portConstraint=eastwest;" parent="Z6YJoc_P9l3Sfv1ZH5nd-224" vertex="1">
          <mxGeometry y="26" width="270" height="24" as="geometry" />
        </mxCell>
        <mxCell id="Z6YJoc_P9l3Sfv1ZH5nd-226" value="" style="line;strokeWidth=1;fillColor=none;align=left;verticalAlign=middle;spacingTop=-1;spacingLeft=3;spacingRight=3;rotatable=0;labelPosition=right;points=[];portConstraint=eastwest;" parent="Z6YJoc_P9l3Sfv1ZH5nd-224" vertex="1">
          <mxGeometry y="50" width="270" height="9.543859649122808" as="geometry" />
        </mxCell>
        <mxCell id="Z6YJoc_P9l3Sfv1ZH5nd-227" value="+ publishExperiment(experiment: Experiment)&#xa;+ unpublishExperiment(experiment: Experiment)&#xa;+ closeExperiment(experiment: Experiment)&#xa;// Getters and Setters" style="text;strokeColor=none;fillColor=none;align=left;verticalAlign=top;spacingLeft=4;spacingRight=4;overflow=hidden;rotatable=0;points=[[0,0.5],[1,0.5]];portConstraint=eastwest;" parent="Z6YJoc_P9l3Sfv1ZH5nd-224" vertex="1">
          <mxGeometry y="59.54385964912281" width="270" height="70.46" as="geometry" />
        </mxCell>
        <mxCell id="Z6YJoc_P9l3Sfv1ZH5nd-228" value="MeasurementTrial" style="swimlane;fontStyle=1;align=center;verticalAlign=top;childLayout=stackLayout;horizontal=1;startSize=26;horizontalStack=0;resizeParent=1;resizeParentMax=0;resizeLast=0;collapsible=1;marginBottom=0;" parent="1" vertex="1">
          <mxGeometry x="5830" y="2990" width="230" height="90" as="geometry" />
        </mxCell>
        <mxCell id="Z6YJoc_P9l3Sfv1ZH5nd-229" value="- measurement: Double" style="text;strokeColor=none;fillColor=none;align=left;verticalAlign=top;spacingLeft=4;spacingRight=4;overflow=hidden;rotatable=0;points=[[0,0.5],[1,0.5]];portConstraint=eastwest;" parent="Z6YJoc_P9l3Sfv1ZH5nd-228" vertex="1">
          <mxGeometry y="26" width="230" height="24" as="geometry" />
        </mxCell>
        <mxCell id="Z6YJoc_P9l3Sfv1ZH5nd-230" value="" style="line;strokeWidth=1;fillColor=none;align=left;verticalAlign=middle;spacingTop=-1;spacingLeft=3;spacingRight=3;rotatable=0;labelPosition=right;points=[];portConstraint=eastwest;" parent="Z6YJoc_P9l3Sfv1ZH5nd-228" vertex="1">
          <mxGeometry y="50" width="230" height="8" as="geometry" />
        </mxCell>
        <mxCell id="Z6YJoc_P9l3Sfv1ZH5nd-231" value="+ getMeasurement(): Double" style="text;strokeColor=none;fillColor=none;align=left;verticalAlign=top;spacingLeft=4;spacingRight=4;overflow=hidden;rotatable=0;points=[[0,0.5],[1,0.5]];portConstraint=eastwest;" parent="Z6YJoc_P9l3Sfv1ZH5nd-228" vertex="1">
          <mxGeometry y="58" width="230" height="32" as="geometry" />
        </mxCell>
        <mxCell id="Z6YJoc_P9l3Sfv1ZH5nd-232" value="NonNegativeTrial" style="swimlane;fontStyle=1;align=center;verticalAlign=top;childLayout=stackLayout;horizontal=1;startSize=26;horizontalStack=0;resizeParent=1;resizeParentMax=0;resizeLast=0;collapsible=1;marginBottom=0;" parent="1" vertex="1">
          <mxGeometry x="6080" y="2989.58" width="160" height="90" as="geometry" />
        </mxCell>
        <mxCell id="Z6YJoc_P9l3Sfv1ZH5nd-233" value="- count: Integer" style="text;strokeColor=none;fillColor=none;align=left;verticalAlign=top;spacingLeft=4;spacingRight=4;overflow=hidden;rotatable=0;points=[[0,0.5],[1,0.5]];portConstraint=eastwest;" parent="Z6YJoc_P9l3Sfv1ZH5nd-232" vertex="1">
          <mxGeometry y="26" width="160" height="24" as="geometry" />
        </mxCell>
        <mxCell id="Z6YJoc_P9l3Sfv1ZH5nd-234" value="" style="line;strokeWidth=1;fillColor=none;align=left;verticalAlign=middle;spacingTop=-1;spacingLeft=3;spacingRight=3;rotatable=0;labelPosition=right;points=[];portConstraint=eastwest;" parent="Z6YJoc_P9l3Sfv1ZH5nd-232" vertex="1">
          <mxGeometry y="50" width="160" height="8" as="geometry" />
        </mxCell>
        <mxCell id="Z6YJoc_P9l3Sfv1ZH5nd-235" value="+ getCount(): Integer" style="text;strokeColor=none;fillColor=none;align=left;verticalAlign=top;spacingLeft=4;spacingRight=4;overflow=hidden;rotatable=0;points=[[0,0.5],[1,0.5]];portConstraint=eastwest;" parent="Z6YJoc_P9l3Sfv1ZH5nd-232" vertex="1">
          <mxGeometry y="58" width="160" height="32" as="geometry" />
        </mxCell>
        <mxCell id="Z6YJoc_P9l3Sfv1ZH5nd-236" value="BinomialTrial" style="swimlane;fontStyle=1;align=center;verticalAlign=top;childLayout=stackLayout;horizontal=1;startSize=26;horizontalStack=0;resizeParent=1;resizeParentMax=0;resizeLast=0;collapsible=1;marginBottom=0;" parent="1" vertex="1">
          <mxGeometry x="6260" y="2989.58" width="210" height="90" as="geometry" />
        </mxCell>
        <mxCell id="Z6YJoc_P9l3Sfv1ZH5nd-237" value="- success: Boolean" style="text;strokeColor=none;fillColor=none;align=left;verticalAlign=top;spacingLeft=4;spacingRight=4;overflow=hidden;rotatable=0;points=[[0,0.5],[1,0.5]];portConstraint=eastwest;" parent="Z6YJoc_P9l3Sfv1ZH5nd-236" vertex="1">
          <mxGeometry y="26" width="210" height="24" as="geometry" />
        </mxCell>
        <mxCell id="Z6YJoc_P9l3Sfv1ZH5nd-238" value="" style="line;strokeWidth=1;fillColor=none;align=left;verticalAlign=middle;spacingTop=-1;spacingLeft=3;spacingRight=3;rotatable=0;labelPosition=right;points=[];portConstraint=eastwest;" parent="Z6YJoc_P9l3Sfv1ZH5nd-236" vertex="1">
          <mxGeometry y="50" width="210" height="8" as="geometry" />
        </mxCell>
        <mxCell id="Z6YJoc_P9l3Sfv1ZH5nd-239" value="+ isSuccess(): Boolean" style="text;strokeColor=none;fillColor=none;align=left;verticalAlign=top;spacingLeft=4;spacingRight=4;overflow=hidden;rotatable=0;points=[[0,0.5],[1,0.5]];portConstraint=eastwest;" parent="Z6YJoc_P9l3Sfv1ZH5nd-236" vertex="1">
          <mxGeometry y="58" width="210" height="32" as="geometry" />
        </mxCell>
        <mxCell id="Z6YJoc_P9l3Sfv1ZH5nd-240" value="CountTrial" style="swimlane;fontStyle=1;align=center;verticalAlign=top;childLayout=stackLayout;horizontal=1;startSize=26;horizontalStack=0;resizeParent=1;resizeParentMax=0;resizeLast=0;collapsible=1;marginBottom=0;" parent="1" vertex="1">
          <mxGeometry x="6490" y="2989.58" width="160" height="90" as="geometry" />
        </mxCell>
        <mxCell id="Z6YJoc_P9l3Sfv1ZH5nd-241" value="- count: Integer" style="text;strokeColor=none;fillColor=none;align=left;verticalAlign=top;spacingLeft=4;spacingRight=4;overflow=hidden;rotatable=0;points=[[0,0.5],[1,0.5]];portConstraint=eastwest;" parent="Z6YJoc_P9l3Sfv1ZH5nd-240" vertex="1">
          <mxGeometry y="26" width="160" height="24" as="geometry" />
        </mxCell>
        <mxCell id="Z6YJoc_P9l3Sfv1ZH5nd-242" value="" style="line;strokeWidth=1;fillColor=none;align=left;verticalAlign=middle;spacingTop=-1;spacingLeft=3;spacingRight=3;rotatable=0;labelPosition=right;points=[];portConstraint=eastwest;" parent="Z6YJoc_P9l3Sfv1ZH5nd-240" vertex="1">
          <mxGeometry y="50" width="160" height="8" as="geometry" />
        </mxCell>
        <mxCell id="Z6YJoc_P9l3Sfv1ZH5nd-243" value="+ getcount(): Integer" style="text;strokeColor=none;fillColor=none;align=left;verticalAlign=top;spacingLeft=4;spacingRight=4;overflow=hidden;rotatable=0;points=[[0,0.5],[1,0.5]];portConstraint=eastwest;" parent="Z6YJoc_P9l3Sfv1ZH5nd-240" vertex="1">
          <mxGeometry y="58" width="160" height="32" as="geometry" />
        </mxCell>
        <mxCell id="Z6YJoc_P9l3Sfv1ZH5nd-244" style="edgeStyle=orthogonalEdgeStyle;rounded=1;orthogonalLoop=1;jettySize=auto;html=1;entryX=0.5;entryY=1;entryDx=0;entryDy=0;startArrow=none;startFill=0;startSize=16;endArrow=block;endFill=0;endSize=16;targetPerimeterSpacing=16;" parent="1" source="Z6YJoc_P9l3Sfv1ZH5nd-245" target="Z6YJoc_P9l3Sfv1ZH5nd-296" edge="1">
          <mxGeometry relative="1" as="geometry" />
        </mxCell>
        <mxCell id="Z6YJoc_P9l3Sfv1ZH5nd-245" value="Reply" style="swimlane;fontStyle=1;align=center;verticalAlign=top;childLayout=stackLayout;horizontal=1;startSize=26;horizontalStack=0;resizeParent=1;resizeParentMax=0;resizeLast=0;collapsible=1;marginBottom=0;" parent="1" vertex="1">
          <mxGeometry x="4010" y="3062" width="210" height="90" as="geometry" />
        </mxCell>
        <mxCell id="Z6YJoc_P9l3Sfv1ZH5nd-246" value="- parentID: String" style="text;strokeColor=none;fillColor=none;align=left;verticalAlign=top;spacingLeft=4;spacingRight=4;overflow=hidden;rotatable=0;points=[[0,0.5],[1,0.5]];portConstraint=eastwest;" parent="Z6YJoc_P9l3Sfv1ZH5nd-245" vertex="1">
          <mxGeometry y="26" width="210" height="24" as="geometry" />
        </mxCell>
        <mxCell id="Z6YJoc_P9l3Sfv1ZH5nd-247" value="" style="line;strokeWidth=1;fillColor=none;align=left;verticalAlign=middle;spacingTop=-1;spacingLeft=3;spacingRight=3;rotatable=0;labelPosition=right;points=[];portConstraint=eastwest;" parent="Z6YJoc_P9l3Sfv1ZH5nd-245" vertex="1">
          <mxGeometry y="50" width="210" height="8" as="geometry" />
        </mxCell>
        <mxCell id="Z6YJoc_P9l3Sfv1ZH5nd-248" value="// Getters and Setters" style="text;strokeColor=none;fillColor=none;align=left;verticalAlign=top;spacingLeft=4;spacingRight=4;overflow=hidden;rotatable=0;points=[[0,0.5],[1,0.5]];portConstraint=eastwest;" parent="Z6YJoc_P9l3Sfv1ZH5nd-245" vertex="1">
          <mxGeometry y="58" width="210" height="32" as="geometry" />
        </mxCell>
        <mxCell id="Z6YJoc_P9l3Sfv1ZH5nd-249" value="" style="edgeStyle=orthogonalEdgeStyle;rounded=1;orthogonalLoop=1;jettySize=auto;html=1;startArrow=none;startFill=0;startSize=16;endArrow=block;endFill=0;endSize=16;targetPerimeterSpacing=16;entryX=0.5;entryY=1;entryDx=0;entryDy=0;exitX=0.5;exitY=0;exitDx=0;exitDy=0;" parent="1" source="Z6YJoc_P9l3Sfv1ZH5nd-254" target="Z6YJoc_P9l3Sfv1ZH5nd-300" edge="1">
          <mxGeometry relative="1" as="geometry" />
        </mxCell>
        <mxCell id="Z6YJoc_P9l3Sfv1ZH5nd-250" style="edgeStyle=orthogonalEdgeStyle;rounded=1;orthogonalLoop=1;jettySize=auto;html=1;startArrow=none;startFill=0;startSize=6;endArrow=classicThin;endFill=1;endSize=6;targetPerimeterSpacing=0;exitX=0;exitY=0.5;exitDx=0;exitDy=0;entryX=0;entryY=0.5;entryDx=0;entryDy=0;" parent="1" source="Z6YJoc_P9l3Sfv1ZH5nd-257" target="Z6YJoc_P9l3Sfv1ZH5nd-222" edge="1">
          <mxGeometry relative="1" as="geometry">
            <mxPoint x="3540" y="2421" as="sourcePoint" />
            <mxPoint x="3710" y="3120" as="targetPoint" />
            <Array as="points">
              <mxPoint x="3690" y="2447" />
              <mxPoint x="3470" y="2447" />
              <mxPoint x="3470" y="3146" />
            </Array>
          </mxGeometry>
        </mxCell>
        <mxCell id="Z6YJoc_P9l3Sfv1ZH5nd-251" value="post, update, delete questions" style="edgeLabel;html=1;align=center;verticalAlign=middle;resizable=0;points=[];" parent="Z6YJoc_P9l3Sfv1ZH5nd-250" vertex="1" connectable="0">
          <mxGeometry x="0.6173" y="-2" relative="1" as="geometry">
            <mxPoint x="83.58999999999999" y="-2.03" as="offset" />
          </mxGeometry>
        </mxCell>
        <mxCell id="Z6YJoc_P9l3Sfv1ZH5nd-252" style="edgeStyle=orthogonalEdgeStyle;rounded=1;orthogonalLoop=1;jettySize=auto;html=1;entryX=0;entryY=0.5;entryDx=0;entryDy=0;startArrow=none;startFill=0;startSize=6;endArrow=classicThin;endFill=1;endSize=6;targetPerimeterSpacing=0;" parent="1" source="Z6YJoc_P9l3Sfv1ZH5nd-254" target="Z6YJoc_P9l3Sfv1ZH5nd-289" edge="1">
          <mxGeometry relative="1" as="geometry">
            <Array as="points">
              <mxPoint x="3745" y="2600" />
              <mxPoint x="4170" y="2600" />
              <mxPoint x="4170" y="2788" />
            </Array>
          </mxGeometry>
        </mxCell>
        <mxCell id="Z6YJoc_P9l3Sfv1ZH5nd-253" value="needs experimenter of question/reply" style="edgeLabel;html=1;align=center;verticalAlign=middle;resizable=0;points=[];" parent="Z6YJoc_P9l3Sfv1ZH5nd-252" vertex="1" connectable="0">
          <mxGeometry x="-0.0051" relative="1" as="geometry">
            <mxPoint x="-127.1" as="offset" />
          </mxGeometry>
        </mxCell>
        <mxCell id="Z6YJoc_P9l3Sfv1ZH5nd-254" value="CommentManager" style="swimlane;fontStyle=1;align=center;verticalAlign=top;childLayout=stackLayout;horizontal=1;startSize=26;horizontalStack=0;resizeParent=1;resizeParentMax=0;resizeLast=0;collapsible=1;marginBottom=0;" parent="1" vertex="1">
          <mxGeometry x="3690" y="2310" width="410" height="200" as="geometry" />
        </mxCell>
        <mxCell id="Z6YJoc_P9l3Sfv1ZH5nd-255" value="- collectionPath: String" style="text;strokeColor=none;fillColor=none;align=left;verticalAlign=top;spacingLeft=4;spacingRight=4;overflow=hidden;rotatable=0;points=[[0,0.5],[1,0.5]];portConstraint=eastwest;" parent="Z6YJoc_P9l3Sfv1ZH5nd-254" vertex="1">
          <mxGeometry y="26" width="410" height="24" as="geometry" />
        </mxCell>
        <mxCell id="Z6YJoc_P9l3Sfv1ZH5nd-256" value="" style="line;strokeWidth=1;fillColor=none;align=left;verticalAlign=middle;spacingTop=-1;spacingLeft=3;spacingRight=3;rotatable=0;labelPosition=right;points=[];portConstraint=eastwest;" parent="Z6YJoc_P9l3Sfv1ZH5nd-254" vertex="1">
          <mxGeometry y="50" width="410" height="8" as="geometry" />
        </mxCell>
        <mxCell id="Z6YJoc_P9l3Sfv1ZH5nd-257" value="+ generateQuestionID(): String&#xa;+ generateReplyID(): String&#xa;+ getAllQuestionIDs(): ArrayList&lt;String&gt;&#xa;+ getAllReplyIDs(): ArrayList&lt;String&gt;&#xa;+ postQuestion(experimenter: Experimenter, question: Question): Question&#xa;+ postReply(experimenter: Experimenter, reply: Reply): Reply&#xa;+ updateQuestion(question: Question)&#xa;+ deleteQuestion(question: Question)&#xa;+ deleteReply(reply: Reply)" style="text;strokeColor=none;fillColor=none;align=left;verticalAlign=top;spacingLeft=4;spacingRight=4;overflow=hidden;rotatable=0;points=[[0,0.5],[1,0.5]];portConstraint=eastwest;" parent="Z6YJoc_P9l3Sfv1ZH5nd-254" vertex="1">
          <mxGeometry y="58" width="410" height="142" as="geometry" />
        </mxCell>
        <mxCell id="Z6YJoc_P9l3Sfv1ZH5nd-258" style="edgeStyle=orthogonalEdgeStyle;rounded=1;orthogonalLoop=1;jettySize=auto;html=1;entryX=0.5;entryY=1;entryDx=0;entryDy=0;startArrow=none;startFill=0;startSize=16;endArrow=block;endFill=0;endSize=16;targetPerimeterSpacing=16;exitX=0.5;exitY=0;exitDx=0;exitDy=0;" parent="1" source="Z6YJoc_P9l3Sfv1ZH5nd-263" target="Z6YJoc_P9l3Sfv1ZH5nd-300" edge="1">
          <mxGeometry relative="1" as="geometry" />
        </mxCell>
        <mxCell id="Z6YJoc_P9l3Sfv1ZH5nd-259" style="edgeStyle=orthogonalEdgeStyle;rounded=1;orthogonalLoop=1;jettySize=auto;html=1;entryX=0.5;entryY=0;entryDx=0;entryDy=0;startArrow=none;startFill=0;startSize=6;endArrow=classicThin;endFill=1;endSize=6;targetPerimeterSpacing=0;" parent="1" source="Z6YJoc_P9l3Sfv1ZH5nd-263" target="Z6YJoc_P9l3Sfv1ZH5nd-306" edge="1">
          <mxGeometry relative="1" as="geometry">
            <Array as="points">
              <mxPoint x="5015" y="2600" />
              <mxPoint x="5319" y="2600" />
            </Array>
          </mxGeometry>
        </mxCell>
        <mxCell id="Z6YJoc_P9l3Sfv1ZH5nd-260" value="publishes, un-publishes, ends experiments" style="edgeLabel;html=1;align=center;verticalAlign=middle;resizable=0;points=[];" parent="Z6YJoc_P9l3Sfv1ZH5nd-259" vertex="1" connectable="0">
          <mxGeometry x="0.4467" y="1" relative="1" as="geometry">
            <mxPoint x="-143.6" y="-1" as="offset" />
          </mxGeometry>
        </mxCell>
        <mxCell id="Z6YJoc_P9l3Sfv1ZH5nd-261" style="edgeStyle=orthogonalEdgeStyle;rounded=1;orthogonalLoop=1;jettySize=auto;html=1;startArrow=none;startFill=0;startSize=6;endArrow=classicThin;endFill=1;endSize=6;targetPerimeterSpacing=0;" parent="1" source="Z6YJoc_P9l3Sfv1ZH5nd-263" target="Z6YJoc_P9l3Sfv1ZH5nd-289" edge="1">
          <mxGeometry relative="1" as="geometry">
            <Array as="points">
              <mxPoint x="4930" y="2600" />
              <mxPoint x="4640" y="2600" />
              <mxPoint x="4640" y="2760" />
            </Array>
          </mxGeometry>
        </mxCell>
        <mxCell id="Z6YJoc_P9l3Sfv1ZH5nd-262" value="needs owner of experiment" style="edgeLabel;html=1;align=center;verticalAlign=middle;resizable=0;points=[];" parent="Z6YJoc_P9l3Sfv1ZH5nd-261" vertex="1" connectable="0">
          <mxGeometry x="-0.1464" y="-2" relative="1" as="geometry">
            <mxPoint x="17.71" as="offset" />
          </mxGeometry>
        </mxCell>
        <mxCell id="Z6YJoc_P9l3Sfv1ZH5nd-263" value="ExperimentManager" style="swimlane;fontStyle=1;align=center;verticalAlign=top;childLayout=stackLayout;horizontal=1;startSize=26;horizontalStack=0;resizeParent=1;resizeParentMax=0;resizeLast=0;collapsible=1;marginBottom=0;" parent="1" vertex="1">
          <mxGeometry x="4730" y="2330" width="570" height="180" as="geometry" />
        </mxCell>
        <mxCell id="Z6YJoc_P9l3Sfv1ZH5nd-264" value="- collectionPath: String" style="text;strokeColor=none;fillColor=none;align=left;verticalAlign=top;spacingLeft=4;spacingRight=4;overflow=hidden;rotatable=0;points=[[0,0.5],[1,0.5]];portConstraint=eastwest;" parent="Z6YJoc_P9l3Sfv1ZH5nd-263" vertex="1">
          <mxGeometry y="26" width="570" height="24" as="geometry" />
        </mxCell>
        <mxCell id="Z6YJoc_P9l3Sfv1ZH5nd-265" value="" style="line;strokeWidth=1;fillColor=none;align=left;verticalAlign=middle;spacingTop=-1;spacingLeft=3;spacingRight=3;rotatable=0;labelPosition=right;points=[];portConstraint=eastwest;" parent="Z6YJoc_P9l3Sfv1ZH5nd-263" vertex="1">
          <mxGeometry y="50" width="570" height="8" as="geometry" />
        </mxCell>
        <mxCell id="Z6YJoc_P9l3Sfv1ZH5nd-266" value="+ generateExperimentID(): String&#xa;+ getFirestoreExperiment(document: QueryDocumentSnapsot): Experiment&#xa;+ experimentContainsKeyword(searchString: String, experiment: Experiment): Boolean&#xa;+ experimentIsOwned(experimenter: Experimenter, experiment: Experiment): Boolean&#xa;+ experimentIsSubscribed(experimenter: Experimenter: experiment: Experiment): Boolean&#xa;+ publishExperiment(experiment: Experiment)&#xa;+ endExperiment(experiment: Experiment)&#xa;+ unpublishExperiment(experiment: Experiment)" style="text;strokeColor=none;fillColor=none;align=left;verticalAlign=top;spacingLeft=4;spacingRight=4;overflow=hidden;rotatable=0;points=[[0,0.5],[1,0.5]];portConstraint=eastwest;" parent="Z6YJoc_P9l3Sfv1ZH5nd-263" vertex="1">
          <mxGeometry y="58" width="570" height="122" as="geometry" />
        </mxCell>
        <mxCell id="Z6YJoc_P9l3Sfv1ZH5nd-267" style="edgeStyle=orthogonalEdgeStyle;rounded=1;orthogonalLoop=1;jettySize=auto;html=1;entryX=0.5;entryY=1;entryDx=0;entryDy=0;startArrow=none;startFill=0;startSize=16;endArrow=block;endFill=0;endSize=16;targetPerimeterSpacing=16;exitX=0.5;exitY=0;exitDx=0;exitDy=0;" parent="1" source="Z6YJoc_P9l3Sfv1ZH5nd-270" target="Z6YJoc_P9l3Sfv1ZH5nd-300" edge="1">
          <mxGeometry relative="1" as="geometry" />
        </mxCell>
        <mxCell id="Z6YJoc_P9l3Sfv1ZH5nd-268" style="edgeStyle=orthogonalEdgeStyle;rounded=1;orthogonalLoop=1;jettySize=auto;html=1;startArrow=none;startFill=0;startSize=6;endArrow=classicThin;endFill=1;endSize=6;targetPerimeterSpacing=0;" parent="1" source="Z6YJoc_P9l3Sfv1ZH5nd-270" target="Z6YJoc_P9l3Sfv1ZH5nd-288" edge="1">
          <mxGeometry relative="1" as="geometry">
            <Array as="points">
              <mxPoint x="4457" y="2590" />
              <mxPoint x="4457" y="2590" />
            </Array>
          </mxGeometry>
        </mxCell>
        <mxCell id="Z6YJoc_P9l3Sfv1ZH5nd-269" value="adds, updates, deletes experimenters" style="edgeLabel;html=1;align=center;verticalAlign=middle;resizable=0;points=[];" parent="Z6YJoc_P9l3Sfv1ZH5nd-268" vertex="1" connectable="0">
          <mxGeometry x="-0.0031" y="-1" relative="1" as="geometry">
            <mxPoint x="0.9700000000000024" y="-25.71" as="offset" />
          </mxGeometry>
        </mxCell>
        <mxCell id="Z6YJoc_P9l3Sfv1ZH5nd-270" value="ExperimenterManager" style="swimlane;fontStyle=1;align=center;verticalAlign=top;childLayout=stackLayout;horizontal=1;startSize=26;horizontalStack=0;resizeParent=1;resizeParentMax=0;resizeLast=0;collapsible=1;marginBottom=0;" parent="1" vertex="1">
          <mxGeometry x="4130" y="2360" width="570" height="150" as="geometry" />
        </mxCell>
        <mxCell id="Z6YJoc_P9l3Sfv1ZH5nd-271" value="- collectionPath: String" style="text;strokeColor=none;fillColor=none;align=left;verticalAlign=top;spacingLeft=4;spacingRight=4;overflow=hidden;rotatable=0;points=[[0,0.5],[1,0.5]];portConstraint=eastwest;" parent="Z6YJoc_P9l3Sfv1ZH5nd-270" vertex="1">
          <mxGeometry y="26" width="570" height="24" as="geometry" />
        </mxCell>
        <mxCell id="Z6YJoc_P9l3Sfv1ZH5nd-272" value="" style="line;strokeWidth=1;fillColor=none;align=left;verticalAlign=middle;spacingTop=-1;spacingLeft=3;spacingRight=3;rotatable=0;labelPosition=right;points=[];portConstraint=eastwest;" parent="Z6YJoc_P9l3Sfv1ZH5nd-270" vertex="1">
          <mxGeometry y="50" width="570" height="8" as="geometry" />
        </mxCell>
        <mxCell id="Z6YJoc_P9l3Sfv1ZH5nd-273" value="+ generateUsername(): String&#xa;+ getAllExperimenterIDs(): ArrayList&lt;String&gt;&#xa;+ retrieveExperimenter(installationID: String, retrieveExperimenterResults: RetrieveExperimenterResults)&#xa;+ addNewExperimenter(installationID: String): Experimenter&#xa;+ updateExperimenter(experimenter: Experimenter)&#xa;+ deleteExperimenter(experimenter: Experimenter)" style="text;strokeColor=none;fillColor=none;align=left;verticalAlign=top;spacingLeft=4;spacingRight=4;overflow=hidden;rotatable=0;points=[[0,0.5],[1,0.5]];portConstraint=eastwest;" parent="Z6YJoc_P9l3Sfv1ZH5nd-270" vertex="1">
          <mxGeometry y="58" width="570" height="92" as="geometry" />
        </mxCell>
        <mxCell id="Z6YJoc_P9l3Sfv1ZH5nd-274" value="" style="endArrow=block;endSize=16;endFill=0;html=1;exitX=0.5;exitY=0;exitDx=0;exitDy=0;entryX=0.5;entryY=1;entryDx=0;entryDy=0;" parent="1" source="Z6YJoc_P9l3Sfv1ZH5nd-240" target="Z6YJoc_P9l3Sfv1ZH5nd-275" edge="1">
          <mxGeometry width="160" relative="1" as="geometry">
            <mxPoint x="5830" y="3029.58" as="sourcePoint" />
            <mxPoint x="6210" y="2921.58" as="targetPoint" />
            <Array as="points">
              <mxPoint x="6570" y="2951.42" />
              <mxPoint x="6220" y="2951.58" />
            </Array>
          </mxGeometry>
        </mxCell>
        <mxCell id="Z6YJoc_P9l3Sfv1ZH5nd-275" value="Trial" style="swimlane;fontStyle=1;align=center;verticalAlign=top;childLayout=stackLayout;horizontal=1;startSize=26;horizontalStack=0;resizeParent=1;resizeParentMax=0;resizeLast=0;collapsible=1;marginBottom=0;" parent="1" vertex="1">
          <mxGeometry x="6140" y="2770.42" width="160" height="100" as="geometry" />
        </mxCell>
        <mxCell id="Z6YJoc_P9l3Sfv1ZH5nd-276" value="- timestamp: Date&#xa;- geolocation: Location" style="text;strokeColor=none;fillColor=none;align=left;verticalAlign=top;spacingLeft=4;spacingRight=4;overflow=hidden;rotatable=0;points=[[0,0.5],[1,0.5]];portConstraint=eastwest;" parent="Z6YJoc_P9l3Sfv1ZH5nd-275" vertex="1">
          <mxGeometry y="26" width="160" height="34" as="geometry" />
        </mxCell>
        <mxCell id="Z6YJoc_P9l3Sfv1ZH5nd-277" value="" style="line;strokeWidth=1;fillColor=none;align=left;verticalAlign=middle;spacingTop=-1;spacingLeft=3;spacingRight=3;rotatable=0;labelPosition=right;points=[];portConstraint=eastwest;" parent="Z6YJoc_P9l3Sfv1ZH5nd-275" vertex="1">
          <mxGeometry y="60" width="160" height="8" as="geometry" />
        </mxCell>
        <mxCell id="Z6YJoc_P9l3Sfv1ZH5nd-278" value="// Getters and Setters" style="text;strokeColor=none;fillColor=none;align=left;verticalAlign=top;spacingLeft=4;spacingRight=4;overflow=hidden;rotatable=0;points=[[0,0.5],[1,0.5]];portConstraint=eastwest;" parent="Z6YJoc_P9l3Sfv1ZH5nd-275" vertex="1">
          <mxGeometry y="68" width="160" height="32" as="geometry" />
        </mxCell>
        <mxCell id="Z6YJoc_P9l3Sfv1ZH5nd-279" value="" style="endArrow=none;endSize=16;endFill=0;html=1;exitX=0.5;exitY=0;exitDx=0;exitDy=0;" parent="1" source="Z6YJoc_P9l3Sfv1ZH5nd-236" edge="1">
          <mxGeometry width="160" relative="1" as="geometry">
            <mxPoint x="6080" y="2971.58" as="sourcePoint" />
            <mxPoint x="6365" y="2951.42" as="targetPoint" />
            <Array as="points">
              <mxPoint x="6365" y="2951.42" />
            </Array>
          </mxGeometry>
        </mxCell>
        <mxCell id="Z6YJoc_P9l3Sfv1ZH5nd-280" value="" style="endArrow=none;endSize=16;endFill=0;html=1;exitX=0.5;exitY=0;exitDx=0;exitDy=0;" parent="1" source="Z6YJoc_P9l3Sfv1ZH5nd-228" edge="1">
          <mxGeometry width="160" relative="1" as="geometry">
            <mxPoint x="5955" y="2999.58" as="sourcePoint" />
            <mxPoint x="6010" y="2951.58" as="targetPoint" />
            <Array as="points">
              <mxPoint x="5945" y="2951.42" />
              <mxPoint x="6347" y="2951.58" />
              <mxPoint x="6080" y="2951.58" />
            </Array>
          </mxGeometry>
        </mxCell>
        <mxCell id="Z6YJoc_P9l3Sfv1ZH5nd-281" value="" style="endArrow=none;endSize=16;endFill=0;html=1;exitX=0.5;exitY=0;exitDx=0;exitDy=0;" parent="1" source="Z6YJoc_P9l3Sfv1ZH5nd-232" edge="1">
          <mxGeometry width="160" relative="1" as="geometry">
            <mxPoint x="5955" y="2999.58" as="sourcePoint" />
            <mxPoint x="6160" y="2951.42" as="targetPoint" />
            <Array as="points">
              <mxPoint x="6160" y="2971.42" />
            </Array>
          </mxGeometry>
        </mxCell>
        <mxCell id="Z6YJoc_P9l3Sfv1ZH5nd-282" value="" style="edgeStyle=orthogonalEdgeStyle;rounded=1;orthogonalLoop=1;jettySize=auto;html=1;endArrow=block;endFill=0;endSize=16;" parent="1" source="Z6YJoc_P9l3Sfv1ZH5nd-224" target="Z6YJoc_P9l3Sfv1ZH5nd-288" edge="1">
          <mxGeometry relative="1" as="geometry" />
        </mxCell>
        <mxCell id="Z6YJoc_P9l3Sfv1ZH5nd-283" value="" style="edgeStyle=orthogonalEdgeStyle;rounded=1;orthogonalLoop=1;jettySize=auto;html=1;endArrow=none;endFill=0;endSize=16;startArrow=diamond;startFill=1;startSize=16;" parent="1" source="Z6YJoc_P9l3Sfv1ZH5nd-288" target="Z6YJoc_P9l3Sfv1ZH5nd-292" edge="1">
          <mxGeometry relative="1" as="geometry" />
        </mxCell>
        <mxCell id="Z6YJoc_P9l3Sfv1ZH5nd-284" style="edgeStyle=orthogonalEdgeStyle;rounded=1;orthogonalLoop=1;jettySize=auto;html=1;startArrow=none;startFill=0;startSize=6;endArrow=classicThin;endFill=1;endSize=6;targetPerimeterSpacing=0;" parent="1" source="Z6YJoc_P9l3Sfv1ZH5nd-288" target="Z6YJoc_P9l3Sfv1ZH5nd-297" edge="1">
          <mxGeometry relative="1" as="geometry">
            <Array as="points">
              <mxPoint x="4189" y="2840" />
              <mxPoint x="4189" y="2920" />
            </Array>
          </mxGeometry>
        </mxCell>
        <mxCell id="Z6YJoc_P9l3Sfv1ZH5nd-285" value="posts questions and replies" style="edgeLabel;html=1;align=center;verticalAlign=middle;resizable=0;points=[];" parent="Z6YJoc_P9l3Sfv1ZH5nd-284" vertex="1" connectable="0">
          <mxGeometry x="0.0006" relative="1" as="geometry">
            <mxPoint y="-1.21" as="offset" />
          </mxGeometry>
        </mxCell>
        <mxCell id="Z6YJoc_P9l3Sfv1ZH5nd-286" style="edgeStyle=orthogonalEdgeStyle;rounded=1;orthogonalLoop=1;jettySize=auto;html=1;startArrow=none;startFill=0;startSize=6;endArrow=classicThin;endFill=1;endSize=6;targetPerimeterSpacing=0;exitX=1;exitY=0.5;exitDx=0;exitDy=0;entryX=0;entryY=0.5;entryDx=0;entryDy=0;" parent="1" source="Z6YJoc_P9l3Sfv1ZH5nd-291" target="Z6YJoc_P9l3Sfv1ZH5nd-307" edge="1">
          <mxGeometry relative="1" as="geometry">
            <Array as="points">
              <mxPoint x="4587" y="2861" />
              <mxPoint x="4620" y="2861" />
              <mxPoint x="4620" y="2930" />
              <mxPoint x="5080" y="2930" />
              <mxPoint x="5080" y="2857" />
            </Array>
          </mxGeometry>
        </mxCell>
        <mxCell id="Z6YJoc_P9l3Sfv1ZH5nd-287" value="can subscribe to" style="edgeLabel;html=1;align=center;verticalAlign=middle;resizable=0;points=[];" parent="Z6YJoc_P9l3Sfv1ZH5nd-286" vertex="1" connectable="0">
          <mxGeometry x="-0.1502" relative="1" as="geometry">
            <mxPoint x="-54.33" y="1.97" as="offset" />
          </mxGeometry>
        </mxCell>
        <mxCell id="Z6YJoc_P9l3Sfv1ZH5nd-288" value="Experimenter" style="swimlane;fontStyle=1;align=center;verticalAlign=top;childLayout=stackLayout;horizontal=1;startSize=26;horizontalStack=0;resizeParent=1;resizeParentMax=0;resizeLast=0;collapsible=1;marginBottom=0;" parent="1" vertex="1">
          <mxGeometry x="4327" y="2730" width="260" height="160.0038596491228" as="geometry" />
        </mxCell>
        <mxCell id="Z6YJoc_P9l3Sfv1ZH5nd-289" value="- status: String&#xa;- userProfile: UserProfile&#xa;- subscribedExperiments: ArrayList&lt;String&gt;&#xa;- comments: ArrayList&lt;String&gt;" style="text;strokeColor=none;fillColor=none;align=left;verticalAlign=top;spacingLeft=4;spacingRight=4;overflow=hidden;rotatable=0;points=[[0,0.5],[1,0.5]];portConstraint=eastwest;" parent="Z6YJoc_P9l3Sfv1ZH5nd-288" vertex="1">
          <mxGeometry y="26" width="260" height="64" as="geometry" />
        </mxCell>
        <mxCell id="Z6YJoc_P9l3Sfv1ZH5nd-290" value="" style="line;strokeWidth=1;fillColor=none;align=left;verticalAlign=middle;spacingTop=-1;spacingLeft=3;spacingRight=3;rotatable=0;labelPosition=right;points=[];portConstraint=eastwest;" parent="Z6YJoc_P9l3Sfv1ZH5nd-288" vertex="1">
          <mxGeometry y="90" width="260" height="9.543859649122808" as="geometry" />
        </mxCell>
        <mxCell id="Z6YJoc_P9l3Sfv1ZH5nd-291" value="+ subscribe(experiment: Experiment)&#xa;+ unsubscribe(experiment: Experimenter)&#xa;// Getters and Setters" style="text;strokeColor=none;fillColor=none;align=left;verticalAlign=top;spacingLeft=4;spacingRight=4;overflow=hidden;rotatable=0;points=[[0,0.5],[1,0.5]];portConstraint=eastwest;" parent="Z6YJoc_P9l3Sfv1ZH5nd-288" vertex="1">
          <mxGeometry y="99.54385964912281" width="260" height="60.46" as="geometry" />
        </mxCell>
        <mxCell id="Z6YJoc_P9l3Sfv1ZH5nd-292" value="UserProfile" style="swimlane;fontStyle=1;align=center;verticalAlign=top;childLayout=stackLayout;horizontal=1;startSize=26;horizontalStack=0;resizeParent=1;resizeParentMax=0;resizeLast=0;collapsible=1;marginBottom=0;" parent="1" vertex="1">
          <mxGeometry x="4680" y="2735" width="310" height="150.0038596491228" as="geometry" />
        </mxCell>
        <mxCell id="Z6YJoc_P9l3Sfv1ZH5nd-293" value="- username: String&#xa;- email: String&#xa;- phoneNumber: String&#xa;- installationID: String" style="text;strokeColor=none;fillColor=none;align=left;verticalAlign=top;spacingLeft=4;spacingRight=4;overflow=hidden;rotatable=0;points=[[0,0.5],[1,0.5]];portConstraint=eastwest;" parent="Z6YJoc_P9l3Sfv1ZH5nd-292" vertex="1">
          <mxGeometry y="26" width="310" height="64" as="geometry" />
        </mxCell>
        <mxCell id="Z6YJoc_P9l3Sfv1ZH5nd-294" value="" style="line;strokeWidth=1;fillColor=none;align=left;verticalAlign=middle;spacingTop=-1;spacingLeft=3;spacingRight=3;rotatable=0;labelPosition=right;points=[];portConstraint=eastwest;" parent="Z6YJoc_P9l3Sfv1ZH5nd-292" vertex="1">
          <mxGeometry y="90" width="310" height="9.543859649122808" as="geometry" />
        </mxCell>
        <mxCell id="Z6YJoc_P9l3Sfv1ZH5nd-295" value="+ isValidEmail(email: String): boolean&#xa;+ isValidPhoneNumber(phoneNumber: String): boolean&#xa;// Getters and Setters" style="text;strokeColor=none;fillColor=none;align=left;verticalAlign=top;spacingLeft=4;spacingRight=4;overflow=hidden;rotatable=0;points=[[0,0.5],[1,0.5]];portConstraint=eastwest;" parent="Z6YJoc_P9l3Sfv1ZH5nd-292" vertex="1">
          <mxGeometry y="99.54385964912281" width="310" height="50.46" as="geometry" />
        </mxCell>
        <mxCell id="Z6YJoc_P9l3Sfv1ZH5nd-296" value="Comment" style="swimlane;fontStyle=1;align=center;verticalAlign=top;childLayout=stackLayout;horizontal=1;startSize=26;horizontalStack=0;resizeParent=1;resizeParentMax=0;resizeLast=0;collapsible=1;marginBottom=0;" parent="1" vertex="1">
          <mxGeometry x="3840" y="2862" width="210" height="130" as="geometry" />
        </mxCell>
        <mxCell id="Z6YJoc_P9l3Sfv1ZH5nd-297" value="- commentID: String&#xa;- commenter: Experimenter&#xa;- content: String&#xa;- timestamp: String" style="text;strokeColor=none;fillColor=none;align=left;verticalAlign=top;spacingLeft=4;spacingRight=4;overflow=hidden;rotatable=0;points=[[0,0.5],[1,0.5]];portConstraint=eastwest;" parent="Z6YJoc_P9l3Sfv1ZH5nd-296" vertex="1">
          <mxGeometry y="26" width="210" height="64" as="geometry" />
        </mxCell>
        <mxCell id="Z6YJoc_P9l3Sfv1ZH5nd-298" value="" style="line;strokeWidth=1;fillColor=none;align=left;verticalAlign=middle;spacingTop=-1;spacingLeft=3;spacingRight=3;rotatable=0;labelPosition=right;points=[];portConstraint=eastwest;" parent="Z6YJoc_P9l3Sfv1ZH5nd-296" vertex="1">
          <mxGeometry y="90" width="210" height="8" as="geometry" />
        </mxCell>
        <mxCell id="Z6YJoc_P9l3Sfv1ZH5nd-299" value="// Getter and Setters" style="text;strokeColor=none;fillColor=none;align=left;verticalAlign=top;spacingLeft=4;spacingRight=4;overflow=hidden;rotatable=0;points=[[0,0.5],[1,0.5]];portConstraint=eastwest;" parent="Z6YJoc_P9l3Sfv1ZH5nd-296" vertex="1">
          <mxGeometry y="98" width="210" height="32" as="geometry" />
        </mxCell>
        <mxCell id="Z6YJoc_P9l3Sfv1ZH5nd-300" value="CommentManager" style="swimlane;fontStyle=1;align=center;verticalAlign=top;childLayout=stackLayout;horizontal=1;startSize=26;horizontalStack=0;resizeParent=1;resizeParentMax=0;resizeLast=0;collapsible=1;marginBottom=0;" parent="1" vertex="1">
          <mxGeometry x="4195" y="2060" width="440" height="160" as="geometry" />
        </mxCell>
        <mxCell id="Z6YJoc_P9l3Sfv1ZH5nd-301" value="database: FirebaseFirestore" style="text;strokeColor=none;fillColor=none;align=left;verticalAlign=top;spacingLeft=4;spacingRight=4;overflow=hidden;rotatable=0;points=[[0,0.5],[1,0.5]];portConstraint=eastwest;" parent="Z6YJoc_P9l3Sfv1ZH5nd-300" vertex="1">
          <mxGeometry y="26" width="440" height="24" as="geometry" />
        </mxCell>
        <mxCell id="Z6YJoc_P9l3Sfv1ZH5nd-302" value="" style="line;strokeWidth=1;fillColor=none;align=left;verticalAlign=middle;spacingTop=-1;spacingLeft=3;spacingRight=3;rotatable=0;labelPosition=right;points=[];portConstraint=eastwest;" parent="Z6YJoc_P9l3Sfv1ZH5nd-300" vertex="1">
          <mxGeometry y="50" width="440" height="8" as="geometry" />
        </mxCell>
        <mxCell id="Z6YJoc_P9l3Sfv1ZH5nd-303" value="+ getAllDocuments(collectionPath: String): ArrayList&lt;String&gt;&#xa;+ isValidDocument(documentName: String, collectionPath: String): Boolean&#xa;+ addDataToCollection(collectionPath: String, document: String, data: HashMap)&#xa;+ removeDataFromCollection(collectionPath: String, document: String)&#xa;+ generateDocumentID(prefix: String, collectionPath: String): String" style="text;strokeColor=none;fillColor=none;align=left;verticalAlign=top;spacingLeft=4;spacingRight=4;overflow=hidden;rotatable=0;points=[[0,0.5],[1,0.5]];portConstraint=eastwest;" parent="Z6YJoc_P9l3Sfv1ZH5nd-300" vertex="1">
          <mxGeometry y="58" width="440" height="102" as="geometry" />
        </mxCell>
        <mxCell id="Z6YJoc_P9l3Sfv1ZH5nd-304" style="edgeStyle=orthogonalEdgeStyle;rounded=1;orthogonalLoop=1;jettySize=auto;html=1;startArrow=none;startFill=0;startSize=6;endArrow=classicThin;endFill=1;endSize=6;targetPerimeterSpacing=0;exitX=0;exitY=0.5;exitDx=0;exitDy=0;entryX=0.503;entryY=1;entryDx=0;entryDy=0;entryPerimeter=0;" parent="1" source="Z6YJoc_P9l3Sfv1ZH5nd-257" target="Z6YJoc_P9l3Sfv1ZH5nd-248" edge="1">
          <mxGeometry relative="1" as="geometry">
            <Array as="points">
              <mxPoint x="3360" y="2447" />
              <mxPoint x="3360" y="3250" />
              <mxPoint x="4116" y="3250" />
            </Array>
          </mxGeometry>
        </mxCell>
        <mxCell id="Z6YJoc_P9l3Sfv1ZH5nd-305" value="post, update, delete replies" style="edgeLabel;html=1;align=center;verticalAlign=middle;resizable=0;points=[];" parent="Z6YJoc_P9l3Sfv1ZH5nd-304" vertex="1" connectable="0">
          <mxGeometry x="0.329" y="1" relative="1" as="geometry">
            <mxPoint x="-47.49999999999997" y="1" as="offset" />
          </mxGeometry>
        </mxCell>
        <mxCell id="Z6YJoc_P9l3Sfv1ZH5nd-306" value="Experiment" style="swimlane;fontStyle=1;align=center;verticalAlign=top;childLayout=stackLayout;horizontal=1;startSize=30;horizontalStack=0;resizeParent=1;resizeParentMax=0;resizeLast=0;collapsible=1;marginBottom=0;" parent="1" vertex="1">
          <mxGeometry x="5159" y="2740" width="320" height="270" as="geometry" />
        </mxCell>
        <mxCell id="Z6YJoc_P9l3Sfv1ZH5nd-307" value="experimentID: String&#xa;ownerID: String&#xa;status: String&#xa;type: String&#xa;title: String&#xa;description: String&#xa;region: String&#xa;minTrials: Integer&#xa;datePublished: Date&#xa;boolean geolocationEnabled&#xa;ArrayList&lt;String&gt; subscribers&#xa;ArrayList&lt;String&gt; questions" style="text;strokeColor=none;fillColor=none;align=left;verticalAlign=top;spacingLeft=4;spacingRight=4;overflow=hidden;rotatable=0;points=[[0,0.5],[1,0.5]];portConstraint=eastwest;" parent="Z6YJoc_P9l3Sfv1ZH5nd-306" vertex="1">
          <mxGeometry y="30" width="320" height="174" as="geometry" />
        </mxCell>
        <mxCell id="Z6YJoc_P9l3Sfv1ZH5nd-308" value="" style="line;strokeWidth=1;fillColor=none;align=left;verticalAlign=middle;spacingTop=-1;spacingLeft=3;spacingRight=3;rotatable=0;labelPosition=right;points=[];portConstraint=eastwest;" parent="Z6YJoc_P9l3Sfv1ZH5nd-306" vertex="1">
          <mxGeometry y="204" width="320" height="8" as="geometry" />
        </mxCell>
        <mxCell id="Z6YJoc_P9l3Sfv1ZH5nd-309" value="+ addSubscriber(username: String)&#xa;+ addQuestion(questionID: String)&#xa;// Getters and Setters" style="text;strokeColor=none;fillColor=none;align=left;verticalAlign=top;spacingLeft=4;spacingRight=4;overflow=hidden;rotatable=0;points=[[0,0.5],[1,0.5]];portConstraint=eastwest;" parent="Z6YJoc_P9l3Sfv1ZH5nd-306" vertex="1">
          <mxGeometry y="212" width="320" height="58" as="geometry" />
        </mxCell>
        <mxCell id="Z6YJoc_P9l3Sfv1ZH5nd-310" style="edgeStyle=orthogonalEdgeStyle;rounded=1;orthogonalLoop=1;jettySize=auto;html=1;startArrow=diamond;startFill=1;startSize=16;endArrow=none;endFill=0;endSize=16;targetPerimeterSpacing=0;" parent="1" source="Z6YJoc_P9l3Sfv1ZH5nd-311" target="Z6YJoc_P9l3Sfv1ZH5nd-240" edge="1">
          <mxGeometry relative="1" as="geometry">
            <Array as="points">
              <mxPoint x="4975" y="3370" />
              <mxPoint x="6570" y="3370" />
            </Array>
          </mxGeometry>
        </mxCell>
        <mxCell id="Z6YJoc_P9l3Sfv1ZH5nd-311" value="Count" style="swimlane;fontStyle=1;align=center;verticalAlign=top;childLayout=stackLayout;horizontal=1;startSize=26;horizontalStack=0;resizeParent=1;resizeParentMax=0;resizeLast=0;collapsible=1;marginBottom=0;" parent="1" vertex="1">
          <mxGeometry x="4870" y="3148" width="210" height="100" as="geometry" />
        </mxCell>
        <mxCell id="Z6YJoc_P9l3Sfv1ZH5nd-312" value="- trials: ArrayList&lt;CountTrial&gt;" style="text;strokeColor=none;fillColor=none;align=left;verticalAlign=top;spacingLeft=4;spacingRight=4;overflow=hidden;rotatable=0;points=[[0,0.5],[1,0.5]];portConstraint=eastwest;" parent="Z6YJoc_P9l3Sfv1ZH5nd-311" vertex="1">
          <mxGeometry y="26" width="210" height="26" as="geometry" />
        </mxCell>
        <mxCell id="Z6YJoc_P9l3Sfv1ZH5nd-313" value="" style="line;strokeWidth=1;fillColor=none;align=left;verticalAlign=middle;spacingTop=-1;spacingLeft=3;spacingRight=3;rotatable=0;labelPosition=right;points=[];portConstraint=eastwest;" parent="Z6YJoc_P9l3Sfv1ZH5nd-311" vertex="1">
          <mxGeometry y="52" width="210" height="8" as="geometry" />
        </mxCell>
        <mxCell id="Z6YJoc_P9l3Sfv1ZH5nd-314" value="+ addTrial()&#xa;// Getters and Setters" style="text;strokeColor=none;fillColor=none;align=left;verticalAlign=top;spacingLeft=4;spacingRight=4;overflow=hidden;rotatable=0;points=[[0,0.5],[1,0.5]];portConstraint=eastwest;" parent="Z6YJoc_P9l3Sfv1ZH5nd-311" vertex="1">
          <mxGeometry y="60" width="210" height="40" as="geometry" />
        </mxCell>
        <mxCell id="Z6YJoc_P9l3Sfv1ZH5nd-315" style="edgeStyle=orthogonalEdgeStyle;rounded=1;orthogonalLoop=1;jettySize=auto;html=1;startArrow=diamond;startFill=1;startSize=16;endArrow=none;endFill=0;endSize=16;targetPerimeterSpacing=0;" parent="1" source="Z6YJoc_P9l3Sfv1ZH5nd-316" target="Z6YJoc_P9l3Sfv1ZH5nd-236" edge="1">
          <mxGeometry relative="1" as="geometry">
            <Array as="points">
              <mxPoint x="5205" y="3330" />
              <mxPoint x="6365" y="3330" />
            </Array>
          </mxGeometry>
        </mxCell>
        <mxCell id="Z6YJoc_P9l3Sfv1ZH5nd-316" value="Binomial" style="swimlane;fontStyle=1;align=center;verticalAlign=top;childLayout=stackLayout;horizontal=1;startSize=26;horizontalStack=0;resizeParent=1;resizeParentMax=0;resizeLast=0;collapsible=1;marginBottom=0;" parent="1" vertex="1">
          <mxGeometry x="5100" y="3118" width="210" height="130" as="geometry" />
        </mxCell>
        <mxCell id="Z6YJoc_P9l3Sfv1ZH5nd-317" value="- trials: ArrayList&lt;BinomialTrial&gt;" style="text;strokeColor=none;fillColor=none;align=left;verticalAlign=top;spacingLeft=4;spacingRight=4;overflow=hidden;rotatable=0;points=[[0,0.5],[1,0.5]];portConstraint=eastwest;" parent="Z6YJoc_P9l3Sfv1ZH5nd-316" vertex="1">
          <mxGeometry y="26" width="210" height="26" as="geometry" />
        </mxCell>
        <mxCell id="Z6YJoc_P9l3Sfv1ZH5nd-318" value="" style="line;strokeWidth=1;fillColor=none;align=left;verticalAlign=middle;spacingTop=-1;spacingLeft=3;spacingRight=3;rotatable=0;labelPosition=right;points=[];portConstraint=eastwest;" parent="Z6YJoc_P9l3Sfv1ZH5nd-316" vertex="1">
          <mxGeometry y="52" width="210" height="8" as="geometry" />
        </mxCell>
        <mxCell id="Z6YJoc_P9l3Sfv1ZH5nd-319" value="+ addTrial()&#xa;+ getSuccessCount()&#xa;+ getFailCount()&#xa;// Getters and Setters" style="text;strokeColor=none;fillColor=none;align=left;verticalAlign=top;spacingLeft=4;spacingRight=4;overflow=hidden;rotatable=0;points=[[0,0.5],[1,0.5]];portConstraint=eastwest;" parent="Z6YJoc_P9l3Sfv1ZH5nd-316" vertex="1">
          <mxGeometry y="60" width="210" height="70" as="geometry" />
        </mxCell>
        <mxCell id="Z6YJoc_P9l3Sfv1ZH5nd-320" style="edgeStyle=orthogonalEdgeStyle;rounded=1;orthogonalLoop=1;jettySize=auto;html=1;startArrow=diamond;startFill=1;startSize=16;endArrow=none;endFill=0;endSize=16;targetPerimeterSpacing=0;" parent="1" source="Z6YJoc_P9l3Sfv1ZH5nd-321" target="Z6YJoc_P9l3Sfv1ZH5nd-235" edge="1">
          <mxGeometry relative="1" as="geometry">
            <Array as="points">
              <mxPoint x="5433" y="3290" />
              <mxPoint x="6160" y="3290" />
            </Array>
          </mxGeometry>
        </mxCell>
        <mxCell id="Z6YJoc_P9l3Sfv1ZH5nd-321" value="NonNegative" style="swimlane;fontStyle=1;align=center;verticalAlign=top;childLayout=stackLayout;horizontal=1;startSize=26;horizontalStack=0;resizeParent=1;resizeParentMax=0;resizeLast=0;collapsible=1;marginBottom=0;" parent="1" vertex="1">
          <mxGeometry x="5328" y="3148" width="210" height="100" as="geometry" />
        </mxCell>
        <mxCell id="Z6YJoc_P9l3Sfv1ZH5nd-322" value="- trials: ArrayList&lt;NonNegativeTrial&gt;" style="text;strokeColor=none;fillColor=none;align=left;verticalAlign=top;spacingLeft=4;spacingRight=4;overflow=hidden;rotatable=0;points=[[0,0.5],[1,0.5]];portConstraint=eastwest;" parent="Z6YJoc_P9l3Sfv1ZH5nd-321" vertex="1">
          <mxGeometry y="26" width="210" height="26" as="geometry" />
        </mxCell>
        <mxCell id="Z6YJoc_P9l3Sfv1ZH5nd-323" value="" style="line;strokeWidth=1;fillColor=none;align=left;verticalAlign=middle;spacingTop=-1;spacingLeft=3;spacingRight=3;rotatable=0;labelPosition=right;points=[];portConstraint=eastwest;" parent="Z6YJoc_P9l3Sfv1ZH5nd-321" vertex="1">
          <mxGeometry y="52" width="210" height="8" as="geometry" />
        </mxCell>
        <mxCell id="Z6YJoc_P9l3Sfv1ZH5nd-324" value="+ addTrial()&#xa;// Getters and Setters" style="text;strokeColor=none;fillColor=none;align=left;verticalAlign=top;spacingLeft=4;spacingRight=4;overflow=hidden;rotatable=0;points=[[0,0.5],[1,0.5]];portConstraint=eastwest;" parent="Z6YJoc_P9l3Sfv1ZH5nd-321" vertex="1">
          <mxGeometry y="60" width="210" height="40" as="geometry" />
        </mxCell>
        <mxCell id="Z6YJoc_P9l3Sfv1ZH5nd-325" style="edgeStyle=orthogonalEdgeStyle;rounded=1;orthogonalLoop=1;jettySize=auto;html=1;startArrow=diamond;startFill=1;startSize=16;endArrow=none;endFill=0;endSize=16;targetPerimeterSpacing=0;exitX=1;exitY=0.5;exitDx=0;exitDy=0;" parent="1" source="Z6YJoc_P9l3Sfv1ZH5nd-327" target="Z6YJoc_P9l3Sfv1ZH5nd-231" edge="1">
          <mxGeometry relative="1" as="geometry">
            <Array as="points">
              <mxPoint x="5945" y="3187" />
            </Array>
          </mxGeometry>
        </mxCell>
        <mxCell id="Z6YJoc_P9l3Sfv1ZH5nd-326" value="Measurement" style="swimlane;fontStyle=1;align=center;verticalAlign=top;childLayout=stackLayout;horizontal=1;startSize=26;horizontalStack=0;resizeParent=1;resizeParentMax=0;resizeLast=0;collapsible=1;marginBottom=0;" parent="1" vertex="1">
          <mxGeometry x="5558" y="3148" width="210" height="100" as="geometry" />
        </mxCell>
        <mxCell id="Z6YJoc_P9l3Sfv1ZH5nd-327" value="- trials: ArrayList&lt;MeasurementTrial&gt;" style="text;strokeColor=none;fillColor=none;align=left;verticalAlign=top;spacingLeft=4;spacingRight=4;overflow=hidden;rotatable=0;points=[[0,0.5],[1,0.5]];portConstraint=eastwest;" parent="Z6YJoc_P9l3Sfv1ZH5nd-326" vertex="1">
          <mxGeometry y="26" width="210" height="26" as="geometry" />
        </mxCell>
        <mxCell id="Z6YJoc_P9l3Sfv1ZH5nd-328" value="" style="line;strokeWidth=1;fillColor=none;align=left;verticalAlign=middle;spacingTop=-1;spacingLeft=3;spacingRight=3;rotatable=0;labelPosition=right;points=[];portConstraint=eastwest;" parent="Z6YJoc_P9l3Sfv1ZH5nd-326" vertex="1">
          <mxGeometry y="52" width="210" height="8" as="geometry" />
        </mxCell>
        <mxCell id="Z6YJoc_P9l3Sfv1ZH5nd-329" value="+ addTrial()&#xa;// Getters and Setters" style="text;strokeColor=none;fillColor=none;align=left;verticalAlign=top;spacingLeft=4;spacingRight=4;overflow=hidden;rotatable=0;points=[[0,0.5],[1,0.5]];portConstraint=eastwest;" parent="Z6YJoc_P9l3Sfv1ZH5nd-326" vertex="1">
          <mxGeometry y="60" width="210" height="40" as="geometry" />
        </mxCell>
        <mxCell id="Z6YJoc_P9l3Sfv1ZH5nd-330" value="" style="endArrow=block;endSize=16;endFill=0;html=1;entryX=0.5;entryY=1;entryDx=0;entryDy=0;exitX=0.5;exitY=0;exitDx=0;exitDy=0;" parent="1" source="Z6YJoc_P9l3Sfv1ZH5nd-311" target="Z6YJoc_P9l3Sfv1ZH5nd-306" edge="1">
          <mxGeometry width="160" relative="1" as="geometry">
            <mxPoint x="4996" y="3074.16" as="sourcePoint" />
            <mxPoint x="5156" y="3074.16" as="targetPoint" />
            <Array as="points">
              <mxPoint x="4975" y="3054.16" />
              <mxPoint x="5319" y="3054.16" />
            </Array>
          </mxGeometry>
        </mxCell>
        <mxCell id="Z6YJoc_P9l3Sfv1ZH5nd-331" value="" style="endArrow=none;endSize=16;endFill=0;html=1;exitX=0.5;exitY=0;exitDx=0;exitDy=0;" parent="1" source="Z6YJoc_P9l3Sfv1ZH5nd-316" edge="1">
          <mxGeometry width="160" relative="1" as="geometry">
            <mxPoint x="4985" y="3104.16" as="sourcePoint" />
            <mxPoint x="5205" y="3054.16" as="targetPoint" />
            <Array as="points">
              <mxPoint x="5205" y="3064.16" />
            </Array>
          </mxGeometry>
        </mxCell>
        <mxCell id="Z6YJoc_P9l3Sfv1ZH5nd-332" value="" style="endArrow=none;endSize=16;endFill=0;html=1;exitX=0.5;exitY=0;exitDx=0;exitDy=0;" parent="1" source="Z6YJoc_P9l3Sfv1ZH5nd-321" edge="1">
          <mxGeometry width="160" relative="1" as="geometry">
            <mxPoint x="5215" y="3104.16" as="sourcePoint" />
            <mxPoint x="5433" y="3054.16" as="targetPoint" />
            <Array as="points">
              <mxPoint x="5433" y="3074.16" />
            </Array>
          </mxGeometry>
        </mxCell>
        <mxCell id="Z6YJoc_P9l3Sfv1ZH5nd-333" value="" style="endArrow=none;endSize=16;endFill=0;html=1;exitX=0.5;exitY=0;exitDx=0;exitDy=0;" parent="1" source="Z6YJoc_P9l3Sfv1ZH5nd-326" edge="1">
          <mxGeometry width="160" relative="1" as="geometry">
            <mxPoint x="5443" y="3104.16" as="sourcePoint" />
            <mxPoint x="5306" y="3054.16" as="targetPoint" />
            <Array as="points">
              <mxPoint x="5663" y="3054.16" />
            </Array>
          </mxGeometry>
        </mxCell>
        <mxCell id="Z6YJoc_P9l3Sfv1ZH5nd-334" value="&lt;font color=&quot;#009900&quot; size=&quot;1&quot;&gt;&lt;b style=&quot;font-size: 23px&quot;&gt;Models&lt;/b&gt;&lt;/font&gt;" style="text;html=1;align=center;verticalAlign=middle;resizable=0;points=[];autosize=1;" parent="1" vertex="1">
          <mxGeometry x="3680" y="2701" width="90" height="20" as="geometry" />
        </mxCell>
        <mxCell id="Z6YJoc_P9l3Sfv1ZH5nd-335" style="edgeStyle=orthogonalEdgeStyle;rounded=1;orthogonalLoop=1;jettySize=auto;html=1;entryX=0;entryY=0.5;entryDx=0;entryDy=0;startArrow=none;startFill=0;startSize=6;endArrow=classicThin;endFill=1;endSize=6;targetPerimeterSpacing=0;" parent="1" source="Z6YJoc_P9l3Sfv1ZH5nd-224" target="Z6YJoc_P9l3Sfv1ZH5nd-309" edge="1">
          <mxGeometry relative="1" as="geometry" />
        </mxCell>
        <mxCell id="Z6YJoc_P9l3Sfv1ZH5nd-336" value="can publish, un-publish, close&amp;nbsp;" style="edgeLabel;html=1;align=center;verticalAlign=middle;resizable=0;points=[];" parent="Z6YJoc_P9l3Sfv1ZH5nd-335" vertex="1" connectable="0">
          <mxGeometry x="-0.2028" y="-2" relative="1" as="geometry">
            <mxPoint x="-92.34" y="-1" as="offset" />
          </mxGeometry>
        </mxCell>
        <mxCell id="Z6YJoc_P9l3Sfv1ZH5nd-337" value="&lt;font size=&quot;1&quot; color=&quot;#994c00&quot;&gt;&lt;b style=&quot;font-size: 23px&quot;&gt;Controllers&lt;/b&gt;&lt;/font&gt;" style="text;html=1;align=center;verticalAlign=middle;resizable=0;points=[];autosize=1;" parent="1" vertex="1">
          <mxGeometry x="3680" y="2050" width="140" height="20" as="geometry" />
        </mxCell>
        <mxCell id="Z6YJoc_P9l3Sfv1ZH5nd-338" value="0..*" style="text;html=1;align=center;verticalAlign=middle;resizable=0;points=[];autosize=1;" parent="1" vertex="1">
          <mxGeometry x="3980" y="3080" width="30" height="20" as="geometry" />
        </mxCell>
        <mxCell id="Z6YJoc_P9l3Sfv1ZH5nd-339" value="1" style="text;html=1;align=center;verticalAlign=middle;resizable=0;points=[];autosize=1;" parent="1" vertex="1">
          <mxGeometry x="3920" y="3090" width="20" height="20" as="geometry" />
        </mxCell>
        <mxCell id="Z6YJoc_P9l3Sfv1ZH5nd-340" value="1" style="text;html=1;align=center;verticalAlign=middle;resizable=0;points=[];autosize=1;" parent="1" vertex="1">
          <mxGeometry x="4660" y="2790" width="20" height="20" as="geometry" />
        </mxCell>
        <mxCell id="Z6YJoc_P9l3Sfv1ZH5nd-341" value="1" style="text;html=1;align=center;verticalAlign=middle;resizable=0;points=[];autosize=1;" parent="1" vertex="1">
          <mxGeometry x="4587" y="2780" width="20" height="20" as="geometry" />
        </mxCell>
        <mxCell id="Z6YJoc_P9l3Sfv1ZH5nd-342" value="1" style="text;html=1;align=center;verticalAlign=middle;resizable=0;points=[];autosize=1;" parent="1" vertex="1">
          <mxGeometry x="5210" y="3248" width="20" height="20" as="geometry" />
        </mxCell>
        <mxCell id="Z6YJoc_P9l3Sfv1ZH5nd-343" value="1" style="text;html=1;align=center;verticalAlign=middle;resizable=0;points=[];autosize=1;" parent="1" vertex="1">
          <mxGeometry x="4980" y="3248" width="20" height="20" as="geometry" />
        </mxCell>
        <mxCell id="Z6YJoc_P9l3Sfv1ZH5nd-344" value="1" style="text;html=1;align=center;verticalAlign=middle;resizable=0;points=[];autosize=1;" parent="1" vertex="1">
          <mxGeometry x="5440" y="3248" width="20" height="20" as="geometry" />
        </mxCell>
        <mxCell id="Z6YJoc_P9l3Sfv1ZH5nd-345" value="1" style="text;html=1;align=center;verticalAlign=middle;resizable=0;points=[];autosize=1;" parent="1" vertex="1">
          <mxGeometry x="5768" y="3160" width="20" height="20" as="geometry" />
        </mxCell>
        <mxCell id="Z6YJoc_P9l3Sfv1ZH5nd-346" value="0..*&lt;span style=&quot;color: rgba(0 , 0 , 0 , 0) ; font-family: monospace ; font-size: 0px&quot;&gt;%3CmxGraphModel%3E%3Croot%3E%3CmxCell%20id%3D%220%22%2F%3E%3CmxCell%20id%3D%221%22%20parent%3D%220%22%2F%3E%3CmxCell%20id%3D%222%22%20value%3D%221%22%20style%3D%22text%3Bhtml%3D1%3Balign%3Dcenter%3BverticalAlign%3Dmiddle%3Bresizable%3D0%3Bpoints%3D%5B%5D%3Bautosize%3D1%3B%22%20vertex%3D%221%22%20parent%3D%221%22%3E%3CmxGeometry%20x%3D%226288%22%20y%3D%224220%22%20width%3D%2220%22%20height%3D%2220%22%20as%3D%22geometry%22%2F%3E%3C%2FmxCell%3E%3C%2Froot%3E%3C%2FmxGraphModel%3E&lt;/span&gt;" style="text;html=1;align=center;verticalAlign=middle;resizable=0;points=[];autosize=1;" parent="1" vertex="1">
          <mxGeometry x="5945" y="3080" width="30" height="20" as="geometry" />
        </mxCell>
        <mxCell id="Z6YJoc_P9l3Sfv1ZH5nd-347" value="0..*&lt;span style=&quot;color: rgba(0 , 0 , 0 , 0) ; font-family: monospace ; font-size: 0px&quot;&gt;%3CmxGraphModel%3E%3Croot%3E%3CmxCell%20id%3D%220%22%2F%3E%3CmxCell%20id%3D%221%22%20parent%3D%220%22%2F%3E%3CmxCell%20id%3D%222%22%20value%3D%221%22%20style%3D%22text%3Bhtml%3D1%3Balign%3Dcenter%3BverticalAlign%3Dmiddle%3Bresizable%3D0%3Bpoints%3D%5B%5D%3Bautosize%3D1%3B%22%20vertex%3D%221%22%20parent%3D%221%22%3E%3CmxGeometry%20x%3D%226288%22%20y%3D%224220%22%20width%3D%2220%22%20height%3D%2220%22%20as%3D%22geometry%22%2F%3E%3C%2FmxCell%3E%3C%2Froot%3E%3C%2FmxGraphModel%3E&lt;/span&gt;" style="text;html=1;align=center;verticalAlign=middle;resizable=0;points=[];autosize=1;" parent="1" vertex="1">
          <mxGeometry x="6160" y="3079.58" width="30" height="20" as="geometry" />
        </mxCell>
        <mxCell id="Z6YJoc_P9l3Sfv1ZH5nd-348" value="0..*&lt;span style=&quot;color: rgba(0 , 0 , 0 , 0) ; font-family: monospace ; font-size: 0px&quot;&gt;%3CmxGraphModel%3E%3Croot%3E%3CmxCell%20id%3D%220%22%2F%3E%3CmxCell%20id%3D%221%22%20parent%3D%220%22%2F%3E%3CmxCell%20id%3D%222%22%20value%3D%221%22%20style%3D%22text%3Bhtml%3D1%3Balign%3Dcenter%3BverticalAlign%3Dmiddle%3Bresizable%3D0%3Bpoints%3D%5B%5D%3Bautosize%3D1%3B%22%20vertex%3D%221%22%20parent%3D%221%22%3E%3CmxGeometry%20x%3D%226288%22%20y%3D%224220%22%20width%3D%2220%22%20height%3D%2220%22%20as%3D%22geometry%22%2F%3E%3C%2FmxCell%3E%3C%2Froot%3E%3C%2FmxGraphModel%3E&lt;/span&gt;" style="text;html=1;align=center;verticalAlign=middle;resizable=0;points=[];autosize=1;" parent="1" vertex="1">
          <mxGeometry x="6370" y="3080" width="30" height="20" as="geometry" />
        </mxCell>
        <mxCell id="Z6YJoc_P9l3Sfv1ZH5nd-349" value="0..*&lt;span style=&quot;color: rgba(0 , 0 , 0 , 0) ; font-family: monospace ; font-size: 0px&quot;&gt;%3CmxGraphModel%3E%3Croot%3E%3CmxCell%20id%3D%220%22%2F%3E%3CmxCell%20id%3D%221%22%20parent%3D%220%22%2F%3E%3CmxCell%20id%3D%222%22%20value%3D%221%22%20style%3D%22text%3Bhtml%3D1%3Balign%3Dcenter%3BverticalAlign%3Dmiddle%3Bresizable%3D0%3Bpoints%3D%5B%5D%3Bautosize%3D1%3B%22%20vertex%3D%221%22%20parent%3D%221%22%3E%3CmxGeometry%20x%3D%226288%22%20y%3D%224220%22%20width%3D%2220%22%20height%3D%2220%22%20as%3D%22geometry%22%2F%3E%3C%2FmxCell%3E%3C%2Froot%3E%3C%2FmxGraphModel%3E&lt;/span&gt;" style="text;html=1;align=center;verticalAlign=middle;resizable=0;points=[];autosize=1;" parent="1" vertex="1">
          <mxGeometry x="6570" y="3080" width="30" height="20" as="geometry" />
        </mxCell>
        <mxCell id="Z6YJoc_P9l3Sfv1ZH5nd-350" value="" style="rounded=0;whiteSpace=wrap;html=1;dashed=1;strokeWidth=5;fillColor=none;strokeColor=#FF0080;" parent="1" vertex="1">
          <mxGeometry x="3670" y="1230" width="1650" height="710" as="geometry" />
        </mxCell>
        <mxCell id="Z6YJoc_P9l3Sfv1ZH5nd-351" value="&lt;font size=&quot;1&quot; color=&quot;#99004d&quot;&gt;&lt;b style=&quot;font-size: 23px&quot;&gt;Views&lt;/b&gt;&lt;/font&gt;" style="text;html=1;align=center;verticalAlign=middle;resizable=0;points=[];autosize=1;" parent="1" vertex="1">
          <mxGeometry x="3685" y="1249" width="80" height="20" as="geometry" />
        </mxCell>
        <mxCell id="Z6YJoc_P9l3Sfv1ZH5nd-352" value="SearchExperimentActivity" style="swimlane;fontStyle=1;align=center;verticalAlign=top;childLayout=stackLayout;horizontal=1;startSize=26;horizontalStack=0;resizeParent=1;resizeParentMax=0;resizeLast=0;collapsible=1;marginBottom=0;" parent="1" vertex="1">
          <mxGeometry x="4189" y="1558" width="260" height="168" as="geometry" />
        </mxCell>
        <mxCell id="Z6YJoc_P9l3Sfv1ZH5nd-353" value="experimentDataList: ArrayList&lt;Experiment&gt;&#xa;allExperimentDataList: ArrayList&lt;Experiment&gt;&#xa;experimentManager: ExperimentManager&#xa;db: FirebaseFirestore&#xa;user: Experimenter&#xa;&#xa;//Purpose: to let the user search for different &#xa;experiments that have already been created&#xa;using keywords" style="text;strokeColor=none;fillColor=none;align=left;verticalAlign=top;spacingLeft=4;spacingRight=4;overflow=hidden;rotatable=0;points=[[0,0.5],[1,0.5]];portConstraint=eastwest;" parent="Z6YJoc_P9l3Sfv1ZH5nd-352" vertex="1">
          <mxGeometry y="26" width="260" height="134" as="geometry" />
        </mxCell>
        <mxCell id="Z6YJoc_P9l3Sfv1ZH5nd-354" value="" style="line;strokeWidth=1;fillColor=none;align=left;verticalAlign=middle;spacingTop=-1;spacingLeft=3;spacingRight=3;rotatable=0;labelPosition=right;points=[];portConstraint=eastwest;" parent="Z6YJoc_P9l3Sfv1ZH5nd-352" vertex="1">
          <mxGeometry y="160" width="260" height="8" as="geometry" />
        </mxCell>
        <mxCell id="Z6YJoc_P9l3Sfv1ZH5nd-355" value="UserProfileActivity" style="swimlane;fontStyle=1;align=center;verticalAlign=top;childLayout=stackLayout;horizontal=1;startSize=26;horizontalStack=0;resizeParent=1;resizeParentMax=0;resizeLast=0;collapsible=1;marginBottom=0;" parent="1" vertex="1">
          <mxGeometry x="4187" y="1750" width="250" height="128" as="geometry" />
        </mxCell>
        <mxCell id="Z6YJoc_P9l3Sfv1ZH5nd-356" value="user: Experimenter&#xa;userProfile: UserProfile&#xa;experimenterManager: ExperimenterManager&#xa;&#xa;//Purpose: to display the users profile as well&#xa;as let them edit their contact information" style="text;strokeColor=none;fillColor=none;align=left;verticalAlign=top;spacingLeft=4;spacingRight=4;overflow=hidden;rotatable=0;points=[[0,0.5],[1,0.5]];portConstraint=eastwest;" parent="Z6YJoc_P9l3Sfv1ZH5nd-355" vertex="1">
          <mxGeometry y="26" width="250" height="94" as="geometry" />
        </mxCell>
        <mxCell id="Z6YJoc_P9l3Sfv1ZH5nd-357" value="" style="line;strokeWidth=1;fillColor=none;align=left;verticalAlign=middle;spacingTop=-1;spacingLeft=3;spacingRight=3;rotatable=0;labelPosition=right;points=[];portConstraint=eastwest;" parent="Z6YJoc_P9l3Sfv1ZH5nd-355" vertex="1">
          <mxGeometry y="120" width="250" height="8" as="geometry" />
        </mxCell>
        <mxCell id="Z6YJoc_P9l3Sfv1ZH5nd-358" value="ViewParticipantsActivity" style="swimlane;fontStyle=1;align=center;verticalAlign=top;childLayout=stackLayout;horizontal=1;startSize=26;horizontalStack=0;resizeParent=1;resizeParentMax=0;resizeLast=0;collapsible=1;marginBottom=0;" parent="1" vertex="1">
          <mxGeometry x="4660" y="1354" width="160" height="34" as="geometry" />
        </mxCell>
        <mxCell id="Z6YJoc_P9l3Sfv1ZH5nd-359" value="" style="line;strokeWidth=1;fillColor=none;align=left;verticalAlign=middle;spacingTop=-1;spacingLeft=3;spacingRight=3;rotatable=0;labelPosition=right;points=[];portConstraint=eastwest;" parent="Z6YJoc_P9l3Sfv1ZH5nd-358" vertex="1">
          <mxGeometry y="26" width="160" height="8" as="geometry" />
        </mxCell>
        <mxCell id="Z6YJoc_P9l3Sfv1ZH5nd-360" value="ViewExperimentCodesActivity" style="swimlane;fontStyle=1;align=center;verticalAlign=top;childLayout=stackLayout;horizontal=1;startSize=26;horizontalStack=0;resizeParent=1;resizeParentMax=0;resizeLast=0;collapsible=1;marginBottom=0;" parent="1" vertex="1">
          <mxGeometry x="4660" y="1434" width="180" height="34" as="geometry" />
        </mxCell>
        <mxCell id="Z6YJoc_P9l3Sfv1ZH5nd-361" value="" style="line;strokeWidth=1;fillColor=none;align=left;verticalAlign=middle;spacingTop=-1;spacingLeft=3;spacingRight=3;rotatable=0;labelPosition=right;points=[];portConstraint=eastwest;" parent="Z6YJoc_P9l3Sfv1ZH5nd-360" vertex="1">
          <mxGeometry y="26" width="180" height="8" as="geometry" />
        </mxCell>
        <mxCell id="Z6YJoc_P9l3Sfv1ZH5nd-363" value="ExperimentListActivity" style="swimlane;fontStyle=1;align=center;verticalAlign=top;childLayout=stackLayout;horizontal=1;startSize=26;horizontalStack=0;resizeParent=1;resizeParentMax=0;resizeLast=0;collapsible=1;marginBottom=0;" parent="1" vertex="1">
          <mxGeometry x="4182" y="1410" width="260" height="128" as="geometry" />
        </mxCell>
        <mxCell id="Z6YJoc_P9l3Sfv1ZH5nd-364" value="user: Experimenter&#xa;experimentManager: ExperimentManager&#xa;&#xa;//Purpose: to show the user what experiments&#xa;they have created and which ones they are&#xa;subscribed to" style="text;strokeColor=none;fillColor=none;align=left;verticalAlign=top;spacingLeft=4;spacingRight=4;overflow=hidden;rotatable=0;points=[[0,0.5],[1,0.5]];portConstraint=eastwest;" parent="Z6YJoc_P9l3Sfv1ZH5nd-363" vertex="1">
          <mxGeometry y="26" width="260" height="94" as="geometry" />
        </mxCell>
        <mxCell id="Z6YJoc_P9l3Sfv1ZH5nd-365" value="" style="line;strokeWidth=1;fillColor=none;align=left;verticalAlign=middle;spacingTop=-1;spacingLeft=3;spacingRight=3;rotatable=0;labelPosition=right;points=[];portConstraint=eastwest;" parent="Z6YJoc_P9l3Sfv1ZH5nd-363" vertex="1">
          <mxGeometry y="120" width="260" height="8" as="geometry" />
        </mxCell>
        <mxCell id="Z6YJoc_P9l3Sfv1ZH5nd-366" value="ExperimentStatisticsActivity" style="swimlane;fontStyle=1;align=center;verticalAlign=top;childLayout=stackLayout;horizontal=1;startSize=26;horizontalStack=0;resizeParent=1;resizeParentMax=0;resizeLast=0;collapsible=1;marginBottom=0;" parent="1" vertex="1">
          <mxGeometry x="4660" y="1524" width="191" height="34" as="geometry" />
        </mxCell>
        <mxCell id="Z6YJoc_P9l3Sfv1ZH5nd-367" value="" style="line;strokeWidth=1;fillColor=none;align=left;verticalAlign=middle;spacingTop=-1;spacingLeft=3;spacingRight=3;rotatable=0;labelPosition=right;points=[];portConstraint=eastwest;" parent="Z6YJoc_P9l3Sfv1ZH5nd-366" vertex="1">
          <mxGeometry y="26" width="191" height="8" as="geometry" />
        </mxCell>
        <mxCell id="Z6YJoc_P9l3Sfv1ZH5nd-369" value="CreateExperimentActivity" style="swimlane;fontStyle=1;align=center;verticalAlign=top;childLayout=stackLayout;horizontal=1;startSize=26;horizontalStack=0;resizeParent=1;resizeParentMax=0;resizeLast=0;collapsible=1;marginBottom=0;" parent="1" vertex="1">
          <mxGeometry x="4182" y="1285" width="220" height="98" as="geometry" />
        </mxCell>
        <mxCell id="Z6YJoc_P9l3Sfv1ZH5nd-370" value="owner: Experimenter&#xa;&#xa;//Purpose: to guide user through the &#xa;process of creating a new experiment" style="text;strokeColor=none;fillColor=none;align=left;verticalAlign=top;spacingLeft=4;spacingRight=4;overflow=hidden;rotatable=0;points=[[0,0.5],[1,0.5]];portConstraint=eastwest;" parent="Z6YJoc_P9l3Sfv1ZH5nd-369" vertex="1">
          <mxGeometry y="26" width="220" height="64" as="geometry" />
        </mxCell>
        <mxCell id="Z6YJoc_P9l3Sfv1ZH5nd-371" value="" style="line;strokeWidth=1;fillColor=none;align=left;verticalAlign=middle;spacingTop=-1;spacingLeft=3;spacingRight=3;rotatable=0;labelPosition=right;points=[];portConstraint=eastwest;" parent="Z6YJoc_P9l3Sfv1ZH5nd-369" vertex="1">
          <mxGeometry y="90" width="220" height="8" as="geometry" />
        </mxCell>
        <mxCell id="Z6YJoc_P9l3Sfv1ZH5nd-372" value="MainActivity" style="swimlane;fontStyle=1;align=center;verticalAlign=top;childLayout=stackLayout;horizontal=1;startSize=26;horizontalStack=0;resizeParent=1;resizeParentMax=0;resizeLast=0;collapsible=1;marginBottom=0;" parent="1" vertex="1">
          <mxGeometry x="3760" y="1376" width="260" height="78" as="geometry" />
        </mxCell>
        <mxCell id="Z6YJoc_P9l3Sfv1ZH5nd-373" value="experimenterManager: ExperimenterManager&#xa;experimentManager: ExperimentManager&#xa;user: Experimenter" style="text;strokeColor=none;fillColor=none;align=left;verticalAlign=top;spacingLeft=4;spacingRight=4;overflow=hidden;rotatable=0;points=[[0,0.5],[1,0.5]];portConstraint=eastwest;" parent="Z6YJoc_P9l3Sfv1ZH5nd-372" vertex="1">
          <mxGeometry y="26" width="260" height="44" as="geometry" />
        </mxCell>
        <mxCell id="Z6YJoc_P9l3Sfv1ZH5nd-374" value="" style="line;strokeWidth=1;fillColor=none;align=left;verticalAlign=middle;spacingTop=-1;spacingLeft=3;spacingRight=3;rotatable=0;labelPosition=right;points=[];portConstraint=eastwest;" parent="Z6YJoc_P9l3Sfv1ZH5nd-372" vertex="1">
          <mxGeometry y="70" width="260" height="8" as="geometry" />
        </mxCell>
        <mxCell id="Z6YJoc_P9l3Sfv1ZH5nd-375" value="ExperimentDetailsActivity" style="swimlane;fontStyle=1;align=center;verticalAlign=top;childLayout=stackLayout;horizontal=1;startSize=26;horizontalStack=0;resizeParent=1;resizeParentMax=0;resizeLast=0;collapsible=1;marginBottom=0;" parent="1" vertex="1">
          <mxGeometry x="4570" y="1700" width="230" height="118" as="geometry" />
        </mxCell>
        <mxCell id="Z6YJoc_P9l3Sfv1ZH5nd-376" value="experiment: Experiment&#xa;manager: ExperimentManager&#xa;&#xa;//Purpose: to show the user more details&#xa;about the experiment they have selected" style="text;strokeColor=none;fillColor=none;align=left;verticalAlign=top;spacingLeft=4;spacingRight=4;overflow=hidden;rotatable=0;points=[[0,0.5],[1,0.5]];portConstraint=eastwest;" parent="Z6YJoc_P9l3Sfv1ZH5nd-375" vertex="1">
          <mxGeometry y="26" width="230" height="84" as="geometry" />
        </mxCell>
        <mxCell id="Z6YJoc_P9l3Sfv1ZH5nd-377" value="" style="line;strokeWidth=1;fillColor=none;align=left;verticalAlign=middle;spacingTop=-1;spacingLeft=3;spacingRight=3;rotatable=0;labelPosition=right;points=[];portConstraint=eastwest;" parent="Z6YJoc_P9l3Sfv1ZH5nd-375" vertex="1">
          <mxGeometry y="110" width="230" height="8" as="geometry" />
        </mxCell>
        <mxCell id="Z6YJoc_P9l3Sfv1ZH5nd-378" value="QuestionActivity" style="swimlane;fontStyle=1;align=center;verticalAlign=top;childLayout=stackLayout;horizontal=1;startSize=26;horizontalStack=0;resizeParent=1;resizeParentMax=0;resizeLast=0;collapsible=1;marginBottom=0;" parent="1" vertex="1">
          <mxGeometry x="4654.5" y="1582" width="191" height="60" as="geometry" />
        </mxCell>
        <mxCell id="Z6YJoc_P9l3Sfv1ZH5nd-379" value="manager: QuestionManager" style="text;strokeColor=none;fillColor=none;align=left;verticalAlign=top;spacingLeft=4;spacingRight=4;overflow=hidden;rotatable=0;points=[[0,0.5],[1,0.5]];portConstraint=eastwest;" parent="Z6YJoc_P9l3Sfv1ZH5nd-378" vertex="1">
          <mxGeometry y="26" width="191" height="26" as="geometry" />
        </mxCell>
        <mxCell id="Z6YJoc_P9l3Sfv1ZH5nd-380" value="" style="line;strokeWidth=1;fillColor=none;align=left;verticalAlign=middle;spacingTop=-1;spacingLeft=3;spacingRight=3;rotatable=0;labelPosition=right;points=[];portConstraint=eastwest;" parent="Z6YJoc_P9l3Sfv1ZH5nd-378" vertex="1">
          <mxGeometry y="52" width="191" height="8" as="geometry" />
        </mxCell>
        <mxCell id="Z6YJoc_P9l3Sfv1ZH5nd-381" value="//Purpose: show the current users &lt;br&gt;that are participating on the experiment" style="text;html=1;align=center;verticalAlign=middle;resizable=0;points=[];autosize=1;" parent="1" vertex="1">
          <mxGeometry x="4869.5" y="1354" width="220" height="30" as="geometry" />
        </mxCell>
        <mxCell id="Z6YJoc_P9l3Sfv1ZH5nd-382" value="//Purpose: show the QRcodes that are &lt;br&gt;being used for the experiment" style="text;html=1;align=center;verticalAlign=middle;resizable=0;points=[];autosize=1;" parent="1" vertex="1">
          <mxGeometry x="4880.5" y="1434" width="220" height="30" as="geometry" />
        </mxCell>
        <mxCell id="Z6YJoc_P9l3Sfv1ZH5nd-383" value="//Purpose: show the statistics and &lt;br&gt;analysis of trials for the experiment" style="text;html=1;align=center;verticalAlign=middle;resizable=0;points=[];autosize=1;" parent="1" vertex="1">
          <mxGeometry x="4880.5" y="1522" width="200" height="30" as="geometry" />
        </mxCell>
        <mxCell id="Z6YJoc_P9l3Sfv1ZH5nd-384" value="//Purpose: Show the questions that have &lt;br&gt;been asked about the experiment" style="text;html=1;align=center;verticalAlign=middle;resizable=0;points=[];autosize=1;" parent="1" vertex="1">
          <mxGeometry x="4880.5" y="1582" width="230" height="30" as="geometry" />
        </mxCell>
        <mxCell id="Z6YJoc_P9l3Sfv1ZH5nd-385" value="//Purpose: Starting page for Crowdtest app. &lt;br&gt;User can create a new experiment, view their &lt;br&gt;experiments,&amp;nbsp;search experiments, and view their profile" style="text;html=1;align=center;verticalAlign=middle;resizable=0;points=[];autosize=1;" parent="1" vertex="1">
          <mxGeometry x="3730" y="1468" width="310" height="50" as="geometry" />
        </mxCell>
      </root>
    </mxGraphModel>
  </diagram>
</mxfile>
